<?xml version="1.0" standalone="no"?><!DOCTYPE svg PUBLIC "-//W3C//DTD SVG 1.1//EN" "http://www.w3.org/Graphics/SVG/1.1/DTD/svg11.dtd"><svg t="1662269439352" class="icon" viewBox="0 0 1024 1024" version="1.1" xmlns="http://www.w3.org/2000/svg" p-id="10900" xmlns:xlink="http://www.w3.org/1999/xlink" width="200" height="200"><path d="M959.872 128l0.128 0.128v767.744l-0.128 0.128H64.128l-0.128-0.128V128.128l0.128-0.128h895.744zM960 64H64C28.8 64 0 92.8 0 128v768c0 35.2 28.8 64 64 64h896c35.2 0 64-28.8 64-64V128c0-35.2-28.8-64-64-64z" p-id="10901"></path><path d="M832 288a96 96 0 1 1-192.064-0.064A96 96 0 0 1 832 288z m64 544H128V704l224-384 256 320h64l224-192z" p-id="10902"></path></svg>