<?xml version="1.0" standalone="no"?><!DOCTYPE svg PUBLIC "-//W3C//DTD SVG 1.1//EN" "http://www.w3.org/Graphics/SVG/1.1/DTD/svg11.dtd"><svg t="1662274563458" class="icon" viewBox="0 0 1024 1024" version="1.1" xmlns="http://www.w3.org/2000/svg" p-id="6937" xmlns:xlink="http://www.w3.org/1999/xlink" width="200" height="200"><path d="M488.039101 960.004955m31.997523 0l319.975227 0q31.997523 0 31.997522 31.997522l0 0q0 31.997523-31.997522 31.997523l-319.975227 0q-31.997523 0-31.997523-31.997523l0 0q0-31.997523 31.997523-31.997522Z" fill="#B6ABFA" p-id="6938"></path><path d="M759.898053 960.004955s-119.590741 63.835058-241.469305 63.835057c-2.135835 0-4.247671 0.159988-6.399504 0.159988a511.960363 511.960363 0 1 1 247.868809-63.995045z m-55.995664-476.659097L392.158524 300.416021c-0.543958-0.319975-1.127913-0.487962-1.687869-0.799938a31.581555 31.581555 0 0 0-3.111759-1.42389 31.101592 31.101592 0 0 0-3.151756-0.975924 29.277733 29.277733 0 0 0-2.783785-0.63995 30.725621 30.725621 0 0 0-3.599721-0.359973c-0.591954-0.015999-1.16791-0.159988-1.775862-0.159987-0.351973 0-0.679947 0.095993-1.03192 0.103992-1.023921 0-2.031843 0.167987-3.047765 0.303976a32.125513 32.125513 0 0 0-3.551725 0.607953c-0.551957 0.135989-1.079916 0.335974-1.599876 0.503961a31.709545 31.709545 0 0 0-4.559647 1.727866l-0.327974 0.175987A31.893531 31.893531 0 0 0 344.050249 328.053881v359.972131a31.50956 31.50956 0 0 0 0.399969 3.951694 32.685469 32.685469 0 0 0 3.99969 19.790468 31.717544 31.717544 0 0 0 43.708616 11.903078l311.751864-182.945836a33.885377 33.885377 0 0 0 0-57.379558z" fill="#325FD3" p-id="6939"></path></svg>