<?xml version="1.0" standalone="no"?><!DOCTYPE svg PUBLIC "-//W3C//DTD SVG 1.1//EN" "http://www.w3.org/Graphics/SVG/1.1/DTD/svg11.dtd"><svg t="1662269810124" class="icon" viewBox="0 0 1024 1024" version="1.1" xmlns="http://www.w3.org/2000/svg" p-id="16401" xmlns:xlink="http://www.w3.org/1999/xlink" width="200" height="200"><path d="M589.024 593.984v203.728c0 29.808 24.832 54.656 54.656 54.656h149.072c29.808 0 54.656-24.848 54.656-54.656V648.64c0-29.808-24.848-54.656-54.656-54.656H589.024zM797.712 912H648.64c-59.616 0-109.312-49.696-109.312-109.312v-263.36h263.36c59.616 0 109.312 49.696 109.312 109.312v149.072c0 29.808-9.936 54.656-29.808 79.52C852.368 902.048 827.52 912 797.712 912zM221.312 593.984c-29.808 0-54.656 24.848-54.656 54.656v149.072c0 29.808 24.848 54.656 54.656 54.656h149.072c29.808 0 54.656-24.848 54.656-54.656V593.984H221.312zM375.36 912h-149.072C161.696 912 112 862.304 112 802.688V653.6c0-29.808 9.936-59.632 34.784-79.504 19.872-19.872 49.696-34.784 79.504-34.784h258.384v263.36c0 29.808-9.936 54.656-29.808 79.504C430.016 902.064 405.168 912 375.344 912z m213.664-477.024h203.728c29.808 0 54.656-24.832 54.656-54.656v-149.072c0-29.808-24.848-54.656-54.656-54.656H643.68c-29.824 0-54.656 24.848-54.656 54.656v203.728z m208.688 54.656h-263.36v-263.36c0-29.792 9.952-59.616 34.784-79.488C589.024 126.912 618.832 112 648.656 112h149.056c59.632 4.96 109.312 54.656 109.312 114.288v149.072c0 29.808-9.92 54.656-29.808 79.504-24.848 24.832-49.696 34.768-79.504 34.768zM221.312 171.632c-29.808 0-54.656 24.848-54.656 54.656v149.072c0 29.808 24.848 54.656 54.656 54.656h203.728V226.288c0-29.808-24.848-54.656-54.656-54.656h-149.072z m263.36 318h-263.36C161.696 489.632 112 439.952 112 380.32v-149.072c0-29.808 9.936-59.616 34.784-79.504 19.872-24.832 49.696-34.768 74.528-34.768h149.072c59.632 0 109.312 49.68 109.312 109.312v263.36h4.96z" p-id="16402"></path></svg>