<?xml version="1.0" encoding="UTF-8" standalone="no"?>
<!DOCTYPE svg PUBLIC "-//W3C//DTD SVG 1.1//EN" "http://www.w3.org/Graphics/SVG/1.1/DTD/svg11.dtd">
<svg width="100%" height="100%" viewBox="0 0 300 300" version="1.1" xmlns="http://www.w3.org/2000/svg" xmlns:xlink="http://www.w3.org/1999/xlink" xml:space="preserve" xmlns:serif="http://www.serif.com/" style="fill-rule:evenodd;clip-rule:evenodd;stroke-linejoin:round;stroke-miterlimit:2;">
    <g transform="matrix(2.60895,0,0,2.60895,-455.573,-424.257)">
        <g opacity="0.75">
            <path d="M285.163,194.262C283.115,193.514 280.85,194.571 280.104,196.619C279.36,198.669 280.419,200.932 282.464,201.677C284.51,202.424 286.778,201.366 287.522,199.319C288.266,197.271 287.209,195.004 285.163,194.262Z" style="fill:white;fill-rule:nonzero;"/>
            <path d="M270.737,176.845C268.694,176.1 266.424,177.155 265.679,179.204C264.934,181.252 265.992,183.515 268.037,184.26C270.088,185.007 272.349,183.951 273.096,181.902C273.842,179.852 272.79,177.589 270.737,176.845Z" style="fill:white;fill-rule:nonzero;"/>
            <path d="M253.174,177.301C254.3,177.705 255.54,177.125 255.947,176.004C256.356,174.883 255.779,173.642 254.657,173.235C253.534,172.826 252.296,173.406 251.887,174.529C251.479,175.647 252.059,176.889 253.174,177.301Z" style="fill:white;fill-rule:nonzero;"/>
            <path d="M267.452,214.828C268.573,215.234 269.813,214.657 270.22,213.534C270.628,212.415 270.05,211.174 268.927,210.764C267.806,210.355 266.565,210.935 266.16,212.056C265.75,213.179 266.329,214.419 267.452,214.828Z" style="fill:white;fill-rule:nonzero;"/>
            <path d="M195.837,234.02C190.066,201.52 226.646,181.239 248.574,192.42C254.278,195.326 257.845,200.72 259.823,204.359C260.558,205.262 262.319,206.021 263.651,205.273C264.975,204.527 264.547,201.805 263.644,199.965C252.791,182.83 221.517,171.761 196.654,186.723C168.488,203.667 167.443,259.284 209.152,273.261C250.857,287.242 269.684,255.296 269.684,255.296C246.912,279.408 201.608,266.518 195.837,234.02ZM187.953,202.656C203.11,179.969 232.682,184.436 232.682,184.436C210.406,183.824 188.051,199.088 184.795,220.4C181.535,241.714 193.189,255.853 193.189,255.853C184.978,249.567 172.8,225.336 187.953,202.656ZM192.277,246.824C179.401,222.04 193.087,197.621 214.496,190.713C214.496,190.713 195.35,199.642 191.562,224.065C187.773,248.485 210.14,268.622 235.209,271.448C235.209,271.448 205.15,271.607 192.277,246.824Z" style="fill:white;fill-rule:nonzero;"/>
            <path d="M282.813,216.482C279.831,201.598 264.208,182.711 244.724,177.72C225.243,172.727 211.732,177.711 211.732,177.711C266.474,171.536 275.807,215.131 276.718,224.161C277.63,233.192 285.796,231.363 282.813,216.482ZM280.951,223.572C280.951,223.572 279.452,223.572 279.452,221.075C279.452,218.581 277.207,206.854 273.465,200.116C273.465,200.116 283.196,213.093 280.951,223.572Z" style="fill:white;fill-rule:nonzero;"/>
        </g>
        <path d="M210.61,244.951L210.723,245.139L210.736,245.139L210.61,244.951Z" style="fill:rgb(35,31,32);fill-rule:nonzero;"/>
        <path d="M206.165,243.551C215.086,258.19 234.184,262.825 248.823,253.904C263.462,244.983 268.097,225.884 259.176,211.245C252.112,199.654 238.668,194.344 226.108,197.06C239.847,193.335 254.945,198.899 262.725,211.666C272.161,227.15 267.259,247.353 251.774,256.789C236.289,266.226 216.087,261.323 206.65,245.838C204.149,241.734 202.665,237.298 202.109,232.819C202.763,236.514 204.094,240.153 206.165,243.551Z" style="fill:white;fill-opacity:0.45;fill-rule:nonzero;"/>
        <path d="M245.501,232.975C247.936,231.786 254.453,226.628 254.453,226.628C254.453,226.628 252.357,226.855 249.184,228.158C246.01,229.462 236.517,233.005 236.517,233.005C230.27,236.937 225.669,242.493 224.187,244.401C220.771,239.453 218.663,234.62 218.663,234.62C216.536,232.323 207.78,228.073 203.019,226.033C198.258,223.992 189.247,219.486 189.247,219.486C192.222,225.013 200.044,230.198 204.38,233.005C208.714,235.81 210.245,238.19 210.245,238.19C212.286,241.42 214.581,244.312 214.581,244.312C215.873,246.651 216.969,247.893 217.768,248.559C217.468,249.097 215.412,252.369 209.792,252.474L210.528,253.947C210.528,253.947 216.14,253.436 220.051,253.947C223.96,254.458 228.043,254.569 232.18,252.927C234.713,251.921 235.586,251.425 235.935,251.035C238.515,250.69 238.755,251.311 238.755,251.311C239.031,249.959 237.542,249.676 236.224,249.678C236.051,248.891 235.305,247.623 232.35,247.315L231.798,247.282C234.926,240.269 243.067,234.164 245.501,232.975Z" style="fill:rgb(88,89,91);fill-rule:nonzero;"/>
        <path d="M244.776,218.329C242.735,219.257 238.096,220.928 238.096,220.928L238.124,220.951C237.925,220.979 237.831,220.99 237.831,220.99C237.831,220.99 233.439,216.783 228.86,211.462C228.86,211.462 222.983,208.121 221.56,206.884C220.137,205.646 215.186,202.429 213.764,202.243C213.764,202.243 218.467,213.379 227.994,217.463C227.994,217.463 229.418,221.485 231.892,223.712C231.892,223.712 230.345,225.197 229.975,225.383C229.604,225.568 226.633,225.693 225.026,227.3C225.026,227.3 226.943,229.651 229.788,230.766C229.788,230.766 231.273,229.281 232.016,228.105C232.016,228.105 236.347,228.971 239.379,227.858C242.41,226.744 242.781,225.507 243.958,224.641C244.701,224.092 245.294,223.766 245.536,223.257L248.443,223.387C248.443,223.387 247.793,222.026 245.566,222.103C245.566,222.103 245.308,221.684 244.801,221.249C246.642,220.426 250.864,220.487 254.708,219.861C258.697,219.211 260.368,216.194 260.368,216.194C256.841,218.933 244.776,218.329 244.776,218.329ZM245.169,223.259C245.172,223.253 245.176,223.247 245.178,223.241L245.196,223.242C245.188,223.248 245.178,223.253 245.169,223.259Z" style="fill:rgb(88,89,91);fill-rule:nonzero;"/>
    </g>
</svg>
